<?xml version="1.0" encoding="UTF-8"?>
<!DOCTYPE svg PUBLIC "-//W3C//DTD SVG 1.1//EN" "http://www.w3.org/Graphics/SVG/1.1/DTD/svg11.dtd">
<svg xmlns="http://www.w3.org/2000/svg" version="1.1" width="512px" height="512px" style="shape-rendering:geometricPrecision; text-rendering:geometricPrecision; image-rendering:optimizeQuality; fill-rule:evenodd; clip-rule:evenodd" xmlns:xlink="http://www.w3.org/1999/xlink">
<g><path style="opacity:0.969" fill="#003d58" d="M 354.5,105.5 C 355.834,88.4976 350.834,73.831 339.5,61.5C 337.1,58.0969 334.1,55.4302 330.5,53.5C 323.345,47.2555 315.011,43.0888 305.5,41C 280.921,38.0618 256.254,37.0618 231.5,38C 205.018,37.3351 183.185,46.8351 166,66.5C 157.715,78.1926 154.215,91.1926 155.5,105.5C 147.365,71.9326 159.032,47.7659 190.5,33C 195.64,30.7314 200.973,29.0647 206.5,28C 238.509,23.4352 270.509,23.4352 302.5,28C 326.988,33.1418 344.488,46.9751 355,69.5C 358.318,81.6634 358.151,93.6634 354.5,105.5 Z"/></g>
<g><path style="opacity:0.999" fill="#359ed8" d="M 330.5,53.5 C 322.643,50.5343 314.977,50.8676 307.5,54.5C 306.152,56.6114 306.485,58.4447 308.5,60C 318.535,67.015 328.868,73.515 339.5,79.5C 340.442,79.3918 341.275,79.0585 342,78.5C 343.109,72.5011 342.275,66.8344 339.5,61.5C 350.834,73.831 355.834,88.4976 354.5,105.5C 354.5,111.167 354.5,116.833 354.5,122.5C 361.694,122.183 367.861,124.516 373,129.5C 374.611,134.146 374.778,138.813 373.5,143.5C 372.5,143.833 371.5,144.167 370.5,144.5C 365.408,142.789 360.408,140.789 355.5,138.5C 354.5,227.498 354.167,316.498 354.5,405.5C 355.665,445.845 336.331,469.678 296.5,477C 265.057,480.774 233.724,480.107 202.5,475C 168.811,464.145 153.144,440.978 155.5,405.5C 155.667,316.499 155.5,227.499 155,138.5C 150.333,140.917 145.499,142.917 140.5,144.5C 139.228,144.43 138.062,144.097 137,143.5C 134.716,129.275 140.883,122.275 155.5,122.5C 155.5,116.833 155.5,111.167 155.5,105.5C 154.215,91.1926 157.715,78.1926 166,66.5C 183.185,46.8351 205.018,37.3351 231.5,38C 256.254,37.0618 280.921,38.0618 305.5,41C 315.011,43.0888 323.345,47.2555 330.5,53.5 Z"/></g>
<g><path style="opacity:1" fill="#a4c4e6" d="M 187.5,51.5 C 193.402,50.962 199.068,51.7953 204.5,54C 206.007,54.8373 206.507,56.0039 206,57.5C 196.111,65.0555 185.944,72.2222 175.5,79C 173.833,79.6667 172.167,79.6667 170.5,79C 168.153,64.8584 173.82,55.6917 187.5,51.5 Z"/></g>
<g><path style="opacity:1" fill="#a4c4e7" d="M 330.5,53.5 C 334.1,55.4302 337.1,58.0969 339.5,61.5C 342.275,66.8344 343.109,72.5011 342,78.5C 341.275,79.0585 340.442,79.3918 339.5,79.5C 328.868,73.515 318.535,67.015 308.5,60C 306.485,58.4447 306.152,56.6114 307.5,54.5C 314.977,50.8676 322.643,50.5343 330.5,53.5 Z"/></g>
<g><path style="opacity:1" fill="#648ead" d="M 174.5,62.5 C 179.253,63.4111 183.92,63.7444 188.5,63.5C 186.5,67.5 183.5,70.5 179.5,72.5C 176.319,69.9763 174.652,66.643 174.5,62.5 Z"/></g>
<g><path style="opacity:1" fill="#6690af" d="M 323.5,63.5 C 328.351,63.385 333.351,63.385 338.5,63.5C 337.391,66.8468 335.724,69.8468 333.5,72.5C 328.823,70.8154 325.49,67.8154 323.5,63.5 Z"/></g>
<g><path style="opacity:1" fill="#0c4968" d="M 339.5,153.5 C 288.671,138.043 238.837,140.709 190,161.5C 189.614,173.073 191.114,184.406 194.5,195.5C 189.5,195.5 184.5,195.5 179.5,195.5C 176.201,184.637 173.367,173.637 171,162.5C 169.935,156.189 169.602,149.856 170,143.5C 209.974,126.137 251.474,121.304 294.5,129C 309.971,131.991 324.971,136.491 339.5,142.5C 340.758,146.21 340.758,149.877 339.5,153.5 Z"/></g>
<g><path style="opacity:1" fill="#003651" d="M 339.5,153.5 C 335.594,174.455 330.428,195.122 324,215.5C 323.174,218.793 322.674,222.126 322.5,225.5C 288.344,212.858 253.344,210.025 217.5,217C 207.105,219.349 196.771,221.849 186.5,224.5C 184.639,214.724 182.306,205.057 179.5,195.5C 184.5,195.5 189.5,195.5 194.5,195.5C 191.114,184.406 189.614,173.073 190,161.5C 238.837,140.709 288.671,138.043 339.5,153.5 Z"/></g>
<g><path style="opacity:1" fill="#2177a6" d="M 346.5,372.5 C 347.498,342.338 347.831,312.005 347.5,281.5C 344.941,281.802 342.607,281.468 340.5,280.5C 342.833,280.5 345.167,280.5 347.5,280.5C 347.5,279.5 347.5,278.5 347.5,277.5C 345.901,277.768 344.568,277.434 343.5,276.5C 344.833,276.5 346.167,276.5 347.5,276.5C 347.832,234.997 347.499,193.663 346.5,152.5C 346.709,151.078 347.209,149.745 348,148.5C 348.667,224.167 348.667,299.833 348,375.5C 347.487,374.473 346.987,373.473 346.5,372.5 Z"/></g>
<g><path style="opacity:1" fill="#196791" d="M 163.5,154.5 C 162.501,194.997 162.168,235.663 162.5,276.5C 163.833,276.5 165.167,276.5 166.5,276.5C 165.432,277.434 164.099,277.768 162.5,277.5C 162.5,278.5 162.5,279.5 162.5,280.5C 164.5,280.5 166.5,280.5 168.5,280.5C 166.735,281.461 164.735,281.795 162.5,281.5C 162.169,311.671 162.502,341.671 163.5,371.5C 163.539,372.756 163.039,373.756 162,374.5C 161.333,299.167 161.333,223.833 162,148.5C 162.813,150.436 163.313,152.436 163.5,154.5 Z"/></g>
<g><path style="opacity:1" fill="#003652" d="M 163.5,154.5 C 168.422,178.111 173.089,201.778 177.5,225.5C 177.5,242.167 177.5,258.833 177.5,275.5C 175.585,275.216 173.919,275.549 172.5,276.5C 170.5,276.5 168.5,276.5 166.5,276.5C 165.167,276.5 163.833,276.5 162.5,276.5C 162.168,235.663 162.501,194.997 163.5,154.5 Z"/></g>
<g><path style="opacity:1" fill="#003752" d="M 346.5,152.5 C 347.499,193.663 347.832,234.997 347.5,276.5C 346.167,276.5 344.833,276.5 343.5,276.5C 339.5,276.5 335.5,276.5 331.5,276.5C 331.333,259.83 331.5,243.163 332,226.5C 336.774,201.798 341.607,177.131 346.5,152.5 Z"/></g>
<g><path style="opacity:1" fill="#0f5377" d="M 177.5,225.5 C 178.497,242.325 178.83,259.325 178.5,276.5C 176.5,276.5 174.5,276.5 172.5,276.5C 173.919,275.549 175.585,275.216 177.5,275.5C 177.5,258.833 177.5,242.167 177.5,225.5 Z"/></g>
<g><path style="opacity:1" fill="#003752" d="M 168.5,280.5 C 171.833,280.5 175.167,280.5 178.5,280.5C 178.667,296.17 178.5,311.837 178,327.5C 172.661,342.018 167.827,356.685 163.5,371.5C 162.502,341.671 162.169,311.671 162.5,281.5C 164.735,281.795 166.735,281.461 168.5,280.5 Z"/></g>
<g><path style="opacity:1" fill="#003651" d="M 340.5,280.5 C 342.607,281.468 344.941,281.802 347.5,281.5C 347.831,312.005 347.498,342.338 346.5,372.5C 341.976,357.426 337.142,342.426 332,327.5C 331.5,311.837 331.333,296.17 331.5,280.5C 334.5,280.5 337.5,280.5 340.5,280.5 Z"/></g>
<g><path style="opacity:1" fill="#003651" d="M 325.5,356.5 C 325.5,360.833 325.5,365.167 325.5,369.5C 322.159,368.995 318.826,368.828 315.5,369C 284.659,390.379 251.659,394.379 216.5,381C 209.011,377.759 202.011,373.759 195.5,369C 191.461,368.952 187.461,369.452 183.5,370.5C 183.334,362.16 183.5,353.827 184,345.5C 184.484,339.241 185.817,333.241 188,327.5C 223.156,339.632 258.99,342.132 295.5,335C 304.401,332.866 313.068,330.033 321.5,326.5C 324.143,336.313 325.477,346.313 325.5,356.5 Z"/></g>
<g><path style="opacity:1" fill="#0c4968" d="M 325.5,356.5 C 326.166,361.155 326.499,365.988 326.5,371C 326.67,378.263 326.003,385.43 324.5,392.5C 277.767,418.135 231.267,417.802 185,391.5C 183.913,384.54 183.413,377.54 183.5,370.5C 187.461,369.452 191.461,368.952 195.5,369C 202.011,373.759 209.011,377.759 216.5,381C 251.659,394.379 284.659,390.379 315.5,369C 318.826,368.828 322.159,368.995 325.5,369.5C 325.5,365.167 325.5,360.833 325.5,356.5 Z"/></g>
<g><path style="opacity:0.948" fill="#003d58" d="M 155.5,405.5 C 153.144,440.978 168.811,464.145 202.5,475C 233.724,480.107 265.057,480.774 296.5,477C 336.331,469.678 355.665,445.845 354.5,405.5C 362.047,430.464 355.714,451.297 335.5,468C 325.653,475.422 314.653,480.422 302.5,483C 270.508,487.587 238.508,487.587 206.5,483C 180.474,478.09 162.974,463.257 154,438.5C 151.809,427.253 152.309,416.253 155.5,405.5 Z"/></g>
<g><path style="opacity:1" fill="#a5bfe2" d="M 177.5,440.5 C 185.109,445.646 192.776,450.813 200.5,456C 202.329,457.113 203.163,458.613 203,460.5C 193.663,461.628 184.829,459.795 176.5,455C 174.552,453.561 173.219,451.728 172.5,449.5C 173.755,446.251 175.422,443.251 177.5,440.5 Z"/></g>
<g><path style="opacity:1" fill="#678cac" d="M 179.5,444.5 C 182.427,445.757 184.761,447.757 186.5,450.5C 186,450.833 185.5,451.167 185,451.5C 181.813,450.955 178.646,450.289 175.5,449.5C 176.857,447.814 178.19,446.148 179.5,444.5 Z"/></g>
<g><path style="opacity:1" fill="#a5bee2" d="M 330.5,440.5 C 331.496,440.414 332.329,440.748 333,441.5C 335.139,443.806 336.639,446.473 337.5,449.5C 336.781,451.728 335.448,453.561 333.5,455C 325.171,459.795 316.337,461.628 307,460.5C 306.837,458.613 307.671,457.113 309.5,456C 316.924,451.3 323.924,446.134 330.5,440.5 Z"/></g>
<g><path style="opacity:1" fill="#658bab" d="M 328.5,444.5 C 331.069,445.396 333.069,447.062 334.5,449.5C 331.167,450.833 327.833,450.833 324.5,449.5C 325.857,447.814 327.19,446.148 328.5,444.5 Z"/></g>
</svg>
